<svg
  width="800px"
  height="800px"
  viewBox="0 0 24 24"
  version="1.1"
  xmlns="http://www.w3.org/2000/svg"
>
  <defs>
    <linearGradient id="hexFill" x1="0%" y1="0%" x2="100%" y2="100%">
      <stop offset="0%" stop-color="#7C6BFF" />
      <stop offset="55%" stop-color="#5B4CFF" />
      <stop offset="100%" stop-color="#1E1B4B" />
    </linearGradient>

    <linearGradient id="hexStroke" x1="0%" y1="0%" x2="100%" y2="100%">
      <stop offset="0%" stop-color="#FFFFFF" />
      <stop offset="18%" stop-color="#DDD6FE" />
      <stop offset="55%" stop-color="#8B5CF6" />
      <stop offset="100%" stop-color="#312E81" />
    </linearGradient>

    <radialGradient id="innerGlow" cx="50%" cy="35%" r="65%">
      <stop offset="0%" stop-color="rgba(167,139,250,0.35)" />
      <stop offset="45%" stop-color="rgba(99,102,241,0.18)" />
      <stop offset="100%" stop-color="rgba(30,27,75,0)" />
    </radialGradient>

    <filter id="softGlow" x="-50%" y="-50%" width="200%" height="200%">
      <feGaussianBlur stdDeviation="0.6" result="blur" />
      <feMerge>
        <feMergeNode in="blur" />
        <feMergeNode in="SourceGraphic" />
      </feMerge>
    </filter>
  </defs>

  <path
    d="M10.75,2.56687 C11.5235,2.12029 12.4765,2.12029 13.25,2.56687 L19.5443,6.20084 C20.3178,6.64743 20.7943,7.47274 20.7943,8.36591 L20.7943,15.6339 C20.7943,16.527 20.3178,17.3523 19.5443,17.7989 L13.25,21.4329 C12.4765,21.8795 11.5235,21.8795 10.75,21.4329 L4.45581,17.7989 C3.68231,17.3523 3.20581,16.527 3.20581,15.6339 L3.20581,8.36591 C3.20581,7.47274 3.68231,6.64743 4.45581,6.20084 L10.75,2.56687 Z"
    fill="url(#hexFill)"
    stroke="url(#hexStroke)"
    stroke-width="0.9"
    filter="url(#softGlow)"
  />

  <path
    d="M10.75,2.56687 C11.5235,2.12029 12.4765,2.12029 13.25,2.56687 L19.5443,6.20084 C20.3178,6.64743 20.7943,7.47274 20.7943,8.36591 L20.7943,15.6339 C20.7943,16.527 20.3178,17.3523 19.5443,17.7989 L13.25,21.4329 C12.4765,21.8795 11.5235,21.8795 10.75,21.4329 L4.45581,17.7989 C3.68231,17.3523 3.20581,16.527 3.20581,15.6339 L3.20581,8.36591 C3.20581,7.47274 3.68231,6.64743 4.45581,6.20084 L10.75,2.56687 Z"
    fill="url(#innerGlow)"
  />

  <g transform="translate(12 12)" stroke="#F1F5FF" stroke-width="0.9" fill="none" stroke-linecap="round" stroke-linejoin="round">
    <circle cx="0" cy="0" r="4.2" />
    <path d="M-4.2 0H4.2" />
    <path d="M0 -4.2C1.4 -2.8 1.9 -1.4 1.9 0C1.9 1.4 1.4 2.8 0 4.2C-1.4 2.8 -1.9 1.4 -1.9 0C-1.9 -1.4 -1.4 -2.8 0 -4.2Z" />
    <path d="M-3.2 -2.1C-1.7 -1.1 1.7 -1.1 3.2 -2.1" opacity="0.75" />
    <path d="M-3.2 2.1C-1.7 1.1 1.7 1.1 3.2 2.1" opacity="0.75" />
  </g>
</svg>