<svg width="23" height="20" viewBox="0 0 23 20" fill="none" xmlns="http://www.w3.org/2000/svg">
<path d="M20.5357 3.36154C20.5357 5.21806 19.0647 6.72308 17.25 6.72308C15.4354 6.72308 13.9643 5.21806 13.9643 3.36154C13.9643 1.50501 15.4354 0 17.25 0C19.0647 0 20.5357 1.50501 20.5357 3.36154Z" fill="white" fill-opacity="0.4"/>
<path d="M23 11.2051C23 13.0617 20.4256 14.5667 17.25 14.5667C14.0744 14.5667 11.5 13.0617 11.5 11.2051C11.5 9.3486 14.0744 7.84359 17.25 7.84359C20.4256 7.84359 23 9.3486 23 11.2051Z" fill="white" fill-opacity="0.4"/>
<path d="M12.65 4.6C12.65 7.14051 10.5905 9.2 8.05 9.2C5.50949 9.2 3.45 7.14051 3.45 4.6C3.45 2.05949 5.50949 0 8.05 0C10.5905 0 12.65 2.05949 12.65 4.6Z" fill="white"/>
<path d="M16.1 15.3333C16.1 17.8738 12.4959 19.9333 8.05 19.9333C3.60411 19.9333 0 17.8738 0 15.3333C0 12.7928 3.60411 10.7333 8.05 10.7333C12.4959 10.7333 16.1 12.7928 16.1 15.3333Z" fill="white"/>
</svg>
